<svg version="1.1">
  <polygon points="0.000000,0.000000
   -5.000000,-321.000000
    1.000000,-642.000000
  151.000000,-660.000000
  259.000000,-691.000000
  423.000000,-738.000000
  547.000000,-770.000000
  680.000000,-801.000000
  858.000000,-837.000000
  988.000000,-682.000000
 1075.000000,-620.000000
 1211.000000,-553.000000
 1319.000000,-527.000000
 1481.000000,-526.000000
 1597.000000,-540.000000
 1737.000000,-564.000000
 1719.000000,-440.000000
 1708.000000,-317.000000
 1718.000000,-194.000000
 1736.000000,-70.000000
 1596.000000,-95.000000
 1480.000000,-109.000000
 1318.000000,-109.000000
 1210.000000,-83.000000
 1074.000000,-17.000000
  986.000000,45.000000
  856.000000,199.000000
  678.000000,162.000000
  545.000000,131.000000
  421.000000,98.000000
  257.000000,50.000000
  149.000000,19.000000"/>
</svg>
