<svg version="1.1">
  <polygon points="-175.388889,-72.479532
 -304.000000,-151.000000
 -407.000000,-193.000000
 -510.000000,-208.000000
 -673.000000,-192.000000
 -790.000000,-169.000000
 -990.000000,-124.000000
-1029.000000,-292.000000
 -760.000000,-353.000000
 -531.000000,-404.000000
 -413.000000,-430.000000
 -288.000000,-510.000000
 -252.000000,-700.000000
 -252.000000,-862.000000
 -274.000000,-1015.000000
 -533.000000,-1157.000000
 -762.000000,-1207.000000
-1031.000000,-1267.000000
 -993.000000,-1435.000000
 -793.000000,-1391.000000
 -675.000000,-1368.000000
 -512.000000,-1353.000000
 -409.000000,-1368.000000
 -307.000000,-1411.000000
 -180.411765,-1488.285449
    6.421687,-1568.918833
  319.000000,-1499.000000
  270.000000,-1290.000000
  248.000000,-1143.000000
  241.000000,-922.000000
  242.000000,-782.000000
  242.000000,-642.000000
  246.000000,-494.000000
  257.000000,-358.000000
  322.000000,-65.000000
   15.847507,8.041056"/>
</svg>
